<svg xmlns="http://www.w3.org/2000/svg" xmlns:xlink="http://www.w3.org/1999/xlink" width="1117" height="185" viewBox="-0.5 -0.5 1117 185"><path d="m330 145 95.82-110.19" fill="none" stroke="#000" stroke-miterlimit="10" pointer-events="stroke"/><path d="m429.27 30.84-1.96 7.58-1.49-3.61-3.79-.98Z" stroke="#000" stroke-miterlimit="10" pointer-events="all"/><switch transform="translate(-.5 -.5)"><foreignObject pointer-events="none" width="100%" height="100%" requiredFeatures="http://www.w3.org/TR/SVG11/feature#Extensibility" style="overflow:visible;text-align:left"><div xmlns="http://www.w3.org/1999/xhtml" style="display:flex;align-items:unsafe center;justify-content:unsafe center;width:1px;height:1px;padding-top:78px;margin-left:387px"><div data-drawio-colors="color: rgb(0, 0, 0); background-color: rgb(255, 255, 255);" style="box-sizing:border-box;font-size:0;text-align:center"><div style="display:inline-block;font-size:15px;font-family:Helvetica;color:#000;line-height:1.2;pointer-events:all;background-color:#fff;white-space:nowrap">Error</div></div></div></foreignObject><text x="387" y="82" font-family="Helvetica" font-size="15" text-anchor="middle">Error</text></switch><path d="M330 145q80 10 158.18.75" fill="none" stroke="#000" stroke-miterlimit="10" pointer-events="stroke"/><path d="m493.39 145.13-6.54 4.3 1.33-3.68-2.15-3.27Z" stroke="#000" stroke-miterlimit="10" pointer-events="all"/><switch transform="translate(-.5 -.5)"><foreignObject pointer-events="none" width="100%" height="100%" requiredFeatures="http://www.w3.org/TR/SVG11/feature#Extensibility" style="overflow:visible;text-align:left"><div xmlns="http://www.w3.org/1999/xhtml" style="display:flex;align-items:unsafe center;justify-content:unsafe center;width:1px;height:1px;padding-top:151px;margin-left:392px"><div data-drawio-colors="color: rgb(0, 0, 0); background-color: rgb(255, 255, 255);" style="box-sizing:border-box;font-size:0;text-align:center"><div style="display:inline-block;font-size:15px;font-family:Helvetica;color:#000;line-height:1.2;pointer-events:all;background-color:#fff;white-space:nowrap">error</div></div></div></foreignObject><text x="392" y="156" font-family="Helvetica" font-size="15" text-anchor="middle">error</text></switch><path fill="#FFF" stroke="#000" pointer-events="all" d="M210 115h120v60H210z"/><switch transform="translate(-.5 -.5)"><foreignObject pointer-events="none" width="100%" height="100%" requiredFeatures="http://www.w3.org/TR/SVG11/feature#Extensibility" style="overflow:visible;text-align:left"><div xmlns="http://www.w3.org/1999/xhtml" style="display:flex;align-items:unsafe center;justify-content:unsafe center;width:118px;height:1px;padding-top:145px;margin-left:211px"><div data-drawio-colors="color: rgb(0, 0, 0);" style="box-sizing:border-box;font-size:0;text-align:center"><div style="display:inline-block;font-size:15px;font-family:Helvetica;color:#000;line-height:1.2;pointer-events:all;white-space:normal;overflow-wrap:normal">X</div></div></div></foreignObject><text x="270" y="150" font-family="Helvetica" font-size="15" text-anchor="middle">X</text></switch><path fill="#FFF" stroke="#000" pointer-events="all" d="M930 0h120v60H930z"/><switch transform="translate(-.5 -.5)"><foreignObject pointer-events="none" width="100%" height="100%" requiredFeatures="http://www.w3.org/TR/SVG11/feature#Extensibility" style="overflow:visible;text-align:left"><div xmlns="http://www.w3.org/1999/xhtml" style="display:flex;align-items:unsafe center;justify-content:unsafe center;width:118px;height:1px;padding-top:30px;margin-left:931px"><div data-drawio-colors="color: rgb(0, 0, 0);" style="box-sizing:border-box;font-size:0;text-align:center"><div style="display:inline-block;font-size:15px;font-family:Helvetica;color:#000;line-height:1.2;pointer-events:all;white-space:normal;overflow-wrap:normal">C1</div></div></div></foreignObject><text x="990" y="35" font-family="Helvetica" font-size="15" text-anchor="middle">C1</text></switch><path fill="#FFF" stroke="#000" pointer-events="all" d="M430 5h50v50h-50zM480 5h50v50h-50zM530 5h50v50h-50zM580 5h50v50h-50zM630 5h50v50h-50zM680 5h50v50h-50zM730 5h50v50h-50z"/><path d="M830 30h93.63" fill="none" stroke="#000" stroke-miterlimit="10" pointer-events="stroke"/><path d="m928.88 30-7 3.5 1.75-3.5-1.75-3.5Z" stroke="#000" stroke-miterlimit="10" pointer-events="all"/><path fill="#FFF" stroke="#000" pointer-events="all" d="M780 5h50v50h-50z"/><path d="M330 145q80-30 158.5-2.13" fill="none" stroke="#000" stroke-miterlimit="10" pointer-events="stroke"/><path d="m493.45 144.63-7.77.95 2.82-2.71-.48-3.88Z" stroke="#000" stroke-miterlimit="10" pointer-events="all"/><switch transform="translate(-.5 -.5)"><foreignObject pointer-events="none" width="100%" height="100%" requiredFeatures="http://www.w3.org/TR/SVG11/feature#Extensibility" style="overflow:visible;text-align:left"><div xmlns="http://www.w3.org/1999/xhtml" style="display:flex;align-items:unsafe center;justify-content:unsafe center;width:1px;height:1px;padding-top:125px;margin-left:410px"><div data-drawio-colors="color: rgb(0, 0, 0); background-color: rgb(255, 255, 255);" style="box-sizing:border-box;font-size:0;text-align:center"><div style="display:inline-block;font-size:15px;font-family:Helvetica;color:#000;line-height:1.2;pointer-events:all;background-color:#fff;white-space:nowrap">info</div></div></div></foreignObject><text x="410" y="130" font-family="Helvetica" font-size="15" text-anchor="middle">info</text></switch><path fill="#FFF" stroke="#000" pointer-events="all" d="M494.5 120h50v50h-50zM544.5 120h50v50h-50zM594.5 120h50v50h-50zM644.5 120h50v50h-50zM694.5 120h50v50h-50zM744.5 120h50v50h-50zM794.5 120h50v50h-50z"/><path d="M894.5 145h94.63" fill="none" stroke="#000" stroke-miterlimit="10" pointer-events="stroke"/><path d="m994.38 145-7 3.5 1.75-3.5-1.75-3.5Z" stroke="#000" stroke-miterlimit="10" pointer-events="all"/><path fill="#FFF" stroke="#000" pointer-events="all" d="M844.5 120h50v50h-50zM995.5 115h120v60h-120z"/><switch transform="translate(-.5 -.5)"><foreignObject pointer-events="none" width="100%" height="100%" requiredFeatures="http://www.w3.org/TR/SVG11/feature#Extensibility" style="overflow:visible;text-align:left"><div xmlns="http://www.w3.org/1999/xhtml" style="display:flex;align-items:unsafe center;justify-content:unsafe center;width:118px;height:1px;padding-top:145px;margin-left:997px"><div data-drawio-colors="color: rgb(0, 0, 0);" style="box-sizing:border-box;font-size:0;text-align:center"><div style="display:inline-block;font-size:15px;font-family:Helvetica;color:#000;line-height:1.2;pointer-events:all;white-space:normal;overflow-wrap:normal">C2</div></div></div></foreignObject><text x="1056" y="150" font-family="Helvetica" font-size="15" text-anchor="middle">C2</text></switch><path d="M120 145h83.63" fill="none" stroke="#000" stroke-miterlimit="10" pointer-events="stroke"/><path d="m208.88 145-7 3.5 1.75-3.5-1.75-3.5Z" stroke="#000" stroke-miterlimit="10" pointer-events="all"/><path fill="#FFF" stroke="#000" pointer-events="all" d="M0 115h120v60H0z"/><switch transform="translate(-.5 -.5)"><foreignObject pointer-events="none" width="100%" height="100%" requiredFeatures="http://www.w3.org/TR/SVG11/feature#Extensibility" style="overflow:visible;text-align:left"><div xmlns="http://www.w3.org/1999/xhtml" style="display:flex;align-items:unsafe center;justify-content:unsafe center;width:118px;height:1px;padding-top:145px;margin-left:1px"><div data-drawio-colors="color: rgb(0, 0, 0);" style="box-sizing:border-box;font-size:0;text-align:center"><div style="display:inline-block;font-size:15px;font-family:Helvetica;color:#000;line-height:1.2;pointer-events:all;white-space:normal;overflow-wrap:normal">P</div></div></div></foreignObject><text x="60" y="150" font-family="Helvetica" font-size="15" text-anchor="middle">P</text></switch><path d="M330 145q70 50 158.87 2.98" fill="none" stroke="#000" stroke-miterlimit="10" pointer-events="stroke"/><path d="m493.51 145.52-4.55 6.37-.09-3.91-3.18-2.28Z" stroke="#000" stroke-miterlimit="10" pointer-events="all"/><switch transform="translate(-.5 -.5)"><foreignObject pointer-events="none" width="100%" height="100%" requiredFeatures="http://www.w3.org/TR/SVG11/feature#Extensibility" style="overflow:visible;text-align:left"><div xmlns="http://www.w3.org/1999/xhtml" style="display:flex;align-items:unsafe center;justify-content:unsafe center;width:1px;height:1px;padding-top:175px;margin-left:400px"><div data-drawio-colors="color: rgb(0, 0, 0); background-color: rgb(255, 255, 255);" style="box-sizing:border-box;font-size:0;text-align:center"><div style="display:inline-block;font-size:15px;font-family:Helvetica;color:#000;line-height:1.2;pointer-events:all;background-color:#fff;white-space:nowrap">warning</div></div></div></foreignObject><text x="400" y="180" font-family="Helvetica" font-size="15" text-anchor="middle">warning</text></switch><switch><a transform="translate(0 -5)" xlink:href="https://www.diagrams.net/doc/faq/svg-export-text-problems" target="_blank"><text text-anchor="middle" font-size="10" x="50%" y="100%">Text is not SVG - cannot display</text></a></switch></svg>