<?xml version="1.0" standalone="no"?><!DOCTYPE svg PUBLIC "-//W3C//DTD SVG 1.1//EN" "http://www.w3.org/Graphics/SVG/1.1/DTD/svg11.dtd" [<!ENTITY nbsp "&#160;">]><svg id="sbsvgSvg1004" xmlns="http://www.w3.org/2000/svg" version="1.1" width="1007" height="248" xmlns:xlink="http://www.w3.org/1999/xlink" style="display: block; background-color: rgb(255, 255, 255);" viewBox="0 0 1007 248"><defs><style type="text/css"><![CDATA[

]]></style></defs><g id="sbsvgG1010" data-name="container" transform="scale(1) translate(172 129.5)"><g id="sbsvgG1012" data-name="sheet"><g id="sbsvgG1013" data-name="matrix-container"></g><g id="sbsvgG1014" data-name="tree-map-cell-container"></g><g id="sbsvgG1015" data-name="connection-container"><g id="sbsvgG1107" data-id="3c49ce6fb7ba57c97dce092811"><path id="sbsvgPath1032" data-name="connection" stroke-linecap="round" stroke="#fa8155" style=""></path><path id="sbsvgPath1153" data-name="connection" stroke-linecap="round" stroke="#fa8155" d="M 135 0L 135 0L 135 -38.5Q 135 -46.5 143 -46.5L 173 -46.5" fill="none" stroke-width="3" marker-end="none" style=""></path><path id="sbsvgPath1200" data-name="connection" stroke-linecap="round" stroke="#fa8155" d="M 347 -46.5L 347 -46.5L 347 -56.5Q 347 -64.5 355 -64.5L 361 -64.5" fill="none" stroke-width="3" marker-end="none" style=""></path><path id="sbsvgPath1235" data-name="connection" stroke-linecap="round" stroke="#ffad36" d="M 122 0L 135 0L 135 38.5Q 135 46.5 143 46.5L 173 46.5" fill="none" stroke-width="3" marker-end="none" style=""></path><path id="sbsvgPath1290" data-name="connection" stroke-linecap="round" stroke="#ffad36" d="M 478 46.5L 491 46.5L 491 46.5Q 491 46.5 499 46.5L 505 46.5" fill="none" stroke-width="3" marker-end="none" style=""></path><path id="sbsvgPath1380" data-name="connection" stroke-linecap="round" stroke="#fa8155" d="M 334 -46.5L 347 -46.5L 347 -36.5Q 347 -28.5 355 -28.5L 361 -28.5" fill="none" stroke-width="3" marker-end="none" style=""></path><path id="sbsvgPath1428" data-name="connection" stroke-linecap="round" stroke="#fa8155" d="M 484 -28.5L 497 -28.5L 497 -28.5Q 497 -28.5 505 -28.5L 511 -28.5" fill="none" stroke-width="2" marker-end="none" style=""></path><path id="sbsvgPath1488" data-name="connection" stroke-linecap="round" stroke="#fa8155" d="M 484 -64.5L 497 -64.5L 497 -64.5Q 497 -64.5 505 -64.5L 511 -64.5" fill="none" stroke-width="2" marker-end="none" style=""></path></g><g id="sbsvgG1137" data-id="5c120149-c9b4-427c-804a-0ff21e42831f"></g></g><g id="sbsvgG1016" data-name="boundary-container"></g><g id="sbsvgG1017" data-name="branch-container"><g id="sbsvgG1033" data-name="branch" class="branch"><g id="sbsvgG1023" data-name="topic" class="topic" style=""><g id="sbsvgG1024" data-name="hand-drawn-topic-shape-group"></g><g id="sbsvgG1025" data-name="topic-shape-group"><path id="sbsvgPath1026" data-name="topic-shape-fill" opacity="1" d="M -112.5 -36.5L 114 -36.5Q 122 -36.5  122 -28.5L 122 30Q 122 38  114 38L -112.5 38Q -120.5 38  -120.5 30L -120.5 -28.5Q -120.5 -36.5  -112.5 -36.5" fill="#ffffff" stroke="none"></path><path id="sbsvgPath1027" data-name="topic-shape" fill="none" stroke="#ef6c70" stroke-width="3" stroke-linecap="none" d="M -112.5 -36.5L 114 -36.5Q 122 -36.5  122 -28.5L 122 30Q 122 38  114 38L -112.5 38Q -120.5 38  -120.5 30L -120.5 -28.5Q -120.5 -36.5  -112.5 -36.5"></path><g id="sbsvgG1028" data-name="topic-content" transform="translate(-90 -20)"><g id="sbsvgG1029" data-name="inner-element-group"><g id="sbsvgG1098" data-name="topic-title-text-group" fill="#0d0d0d" text-decoration="none" text-anchor="middle" font-size="30" font-family="'Droid Serif','NeverMind','NeverMind','Microsoft YaHei','PingFang SC','Microsoft JhengHei',sans-serif" font-weight="400" font-style="normal"><text id="sbsvgText1097" font-family="'Droid Serif','NeverMind','NeverMind','Microsoft YaHei','PingFang SC','Microsoft JhengHei',sans-serif" fill="#0d0d0d" text-decoration="none" text-anchor="middle" font-size="30" font-weight="400" font-style="normal" transform="translate(90 0)" style="user-select: none; cursor: default;"><tspan id="sbsvgTspan1143" font-family="'Droid Serif','NeverMind','NeverMind','Microsoft YaHei','PingFang SC','Microsoft JhengHei',sans-serif" font-size="30" font-weight="400" font-style="normal" text-decoration="none" dy="30" x="0" style="white-space: pre;">‎消息开始发送</tspan></text></g><g id="sbsvgG1099" data="markers-group" class="MARKERS"></g></g></g></g></g></g><g id="sbsvgG1154" data-name="branch" class="branch" transform="translate(253 -46.5)"><rect id="sbsvgRect1224" width="22" height="44" data-name="collapse-extend-hover-area" opacity="0" x="85" y="-22" style=""></rect><g id="sbsvgG1144" data-name="topic" class="topic" style=""><g id="sbsvgG1145" data-name="hand-drawn-topic-shape-group"></g><g id="sbsvgG1146" data-name="topic-shape-group"><path id="sbsvgPath1147" data-name="topic-shape-fill" opacity="0" d="M -73 -22L 73 -22Q 81 -22  81 -14L 81 14Q 81 22  73 22L -73 22Q -81 22  -81 14L -81 -14Q -81 -22  -73 -22"></path><path id="sbsvgPath1148" data-name="topic-shape" fill="none" stroke-width="0" stroke-linecap="none" d="M -73 -22L 73 -22Q 81 -22  81 -14L 81 14Q 81 22  73 22L -73 22Q -81 22  -81 14L -81 -14Q -81 -22  -73 -22"></path><g id="sbsvgG1149" data-name="topic-content" transform="translate(-63 -12)"><g id="sbsvgG1150" data-name="inner-element-group"><g id="sbsvgG1156" data-name="topic-title-text-group" fill="#0d0d0d" text-decoration="none" text-anchor="start" font-size="18" font-family="'Droid Serif','NeverMind','NeverMind','Microsoft YaHei','PingFang SC','Microsoft JhengHei',sans-serif" font-weight="400" font-style="normal"><text id="sbsvgText1155" font-family="'Droid Serif','NeverMind','NeverMind','Microsoft YaHei','PingFang SC','Microsoft JhengHei',sans-serif" fill="#0d0d0d" text-decoration="none" text-anchor="start" font-size="18" font-weight="400" font-style="normal" style="user-select: none; cursor: default;"><tspan id="sbsvgTspan1190" font-family="'Droid Serif','NeverMind','NeverMind','Microsoft YaHei','PingFang SC','Microsoft JhengHei',sans-serif" font-size="18" font-weight="400" font-style="normal" text-decoration="none" dy="18" x="0" style="white-space: pre;">‎消息到达交换机</tspan></text></g><g id="sbsvgG1157" data="markers-group" class="MARKERS"></g></g></g></g></g></g><g id="sbsvgG1201" data-name="branch" class="branch" transform="translate(422 -64.5)" style=""><rect id="sbsvgRect1512" width="22" height="30" data-name="collapse-extend-hover-area" opacity="0" x="66" y="-15"></rect><g id="sbsvgG1191" data-name="topic" class="topic" style=""><g id="sbsvgG1192" data-name="hand-drawn-topic-shape-group"></g><g id="sbsvgG1193" data-name="topic-shape-group"><path id="sbsvgPath1194" data-name="topic-shape-fill" opacity="0" d="M -54 -15L 54 -15Q 62 -15  62 -7L 62 7Q 62 15  54 15L -54 15Q -62 15  -62 7L -62 -7Q -62 -15  -54 -15"></path><path id="sbsvgPath1195" data-name="topic-shape" fill="none" stroke-width="0" stroke-linecap="none" d="M -54 -15L 54 -15Q 62 -15  62 -7L 62 7Q 62 15  54 15L -54 15Q -62 15  -62 7L -62 -7Q -62 -15  -54 -15"></path><g id="sbsvgG1196" data-name="topic-content" transform="translate(-56 -9)"><g id="sbsvgG1197" data-name="inner-element-group"><g id="sbsvgG1203" data-name="topic-title-text-group" fill="#0d0d0d" text-decoration="none" text-anchor="start" font-size="14" font-family="'Droid Serif','NeverMind','NeverMind','Microsoft YaHei','PingFang SC','Microsoft JhengHei',sans-serif" font-weight="400" font-style="normal"><text id="sbsvgText1202" font-family="'Droid Serif','NeverMind','NeverMind','Microsoft YaHei','PingFang SC','Microsoft JhengHei',sans-serif" fill="#0d0d0d" text-decoration="none" text-anchor="start" font-size="14" font-weight="400" font-style="normal" style="user-select: none; cursor: default;"><tspan id="sbsvgTspan1370" font-family="'Droid Serif','NeverMind','NeverMind','Microsoft YaHei','PingFang SC','Microsoft JhengHei',sans-serif" font-size="14" font-weight="400" font-style="normal" text-decoration="none" dy="14" x="0" style="white-space: pre;">‎消息成功到达队列</tspan></text></g><g id="sbsvgG1204" data="markers-group" class="MARKERS"></g></g></g></g></g></g><g id="sbsvgG1236" data-name="branch" class="branch" transform="translate(325 46.5)"><rect id="sbsvgRect1314" width="22" height="44" data-name="collapse-extend-hover-area" opacity="0" x="157" y="-22"></rect><g id="sbsvgG1226" data-name="topic" class="topic" style=""><g id="sbsvgG1227" data-name="hand-drawn-topic-shape-group"></g><g id="sbsvgG1228" data-name="topic-shape-group"><path id="sbsvgPath1229" data-name="topic-shape-fill" opacity="0" d="M -145 -22L 145 -22Q 153 -22  153 -14L 153 14Q 153 22  145 22L -145 22Q -153 22  -153 14L -153 -14Q -153 -22  -145 -22"></path><path id="sbsvgPath1230" data-name="topic-shape" fill="none" stroke-width="0" stroke-linecap="none" d="M -145 -22L 145 -22Q 153 -22  153 -14L 153 14Q 153 22  145 22L -145 22Q -153 22  -153 14L -153 -14Q -153 -22  -145 -22"></path><g id="sbsvgG1231" data-name="topic-content" transform="translate(-135 -12)"><g id="sbsvgG1232" data-name="inner-element-group"><g id="sbsvgG1238" data-name="topic-title-text-group" fill="#0d0d0d" text-decoration="none" text-anchor="start" font-size="18" font-family="'Droid Serif','NeverMind','NeverMind','Microsoft YaHei','PingFang SC','Microsoft JhengHei',sans-serif" font-weight="400" font-style="normal"><text id="sbsvgText1237" font-family="'Droid Serif','NeverMind','NeverMind','Microsoft YaHei','PingFang SC','Microsoft JhengHei',sans-serif" fill="#0d0d0d" text-decoration="none" text-anchor="start" font-size="18" font-weight="400" font-style="normal" style="user-select: none; cursor: default;"><tspan id="sbsvgTspan1279" font-family="'Droid Serif','NeverMind','NeverMind','Microsoft YaHei','PingFang SC','Microsoft JhengHei',sans-serif" font-size="18" font-weight="400" font-style="normal" text-decoration="none" dy="18" x="0" style="white-space: pre;">‎交换机出错，消息没有到达交换机</tspan></text></g><g id="sbsvgG1239" data="markers-group" class="MARKERS"></g></g></g></g></g></g><g id="sbsvgG1291" data-name="branch" class="branch" transform="translate(644.5 46.5)"><g id="sbsvgG1281" data-name="topic" class="topic" style=""><g id="sbsvgG1282" data-name="hand-drawn-topic-shape-group"></g><g id="sbsvgG1283" data-name="topic-shape-group"><path id="sbsvgPath1284" data-name="topic-shape-fill" opacity="0" d="M -132.5 -15L 132.5 -15Q 140.5 -15  140.5 -7L 140.5 7Q 140.5 15  132.5 15L -132.5 15Q -140.5 15  -140.5 7L -140.5 -7Q -140.5 -15  -132.5 -15"></path><path id="sbsvgPath1285" data-name="topic-shape" fill="none" stroke-width="0" stroke-linecap="none" d="M -132.5 -15L 132.5 -15Q 140.5 -15  140.5 -7L 140.5 7Q 140.5 15  132.5 15L -132.5 15Q -140.5 15  -140.5 7L -140.5 -7Q -140.5 -15  -132.5 -15"></path><g id="sbsvgG1286" data-name="topic-content" transform="translate(-134.5 -9)"><g id="sbsvgG1287" data-name="inner-element-group"><g id="sbsvgG1293" data-name="topic-title-text-group" fill="#0d0d0d" text-decoration="none" text-anchor="start" font-size="14" font-family="'Droid Serif','NeverMind','NeverMind','Microsoft YaHei','PingFang SC','Microsoft JhengHei',sans-serif" font-weight="400" font-style="normal"><text id="sbsvgText1292" font-family="'Droid Serif','NeverMind','NeverMind','Microsoft YaHei','PingFang SC','Microsoft JhengHei',sans-serif" fill="#0d0d0d" text-decoration="none" text-anchor="start" font-size="14" font-weight="400" font-style="normal" style="user-select: none; cursor: default;"><tspan id="sbsvgTspan1344" font-family="'Droid Serif','NeverMind','NeverMind','Microsoft YaHei','PingFang SC','Microsoft JhengHei',sans-serif" font-size="14" font-weight="400" font-style="normal" text-decoration="none" dy="14" x="0" style="white-space: pre;">‎alternate-exchange，消息进入备份交换机</tspan></text></g><g id="sbsvgG1294" data="markers-group" class="MARKERS"></g></g></g></g></g></g><g id="sbsvgG1381" data-name="branch" class="branch" transform="translate(422 -28.5)"><rect id="sbsvgRect1452" width="22" height="30" data-name="collapse-extend-hover-area" opacity="0" x="66" y="-15"></rect><g id="sbsvgG1371" data-name="topic" class="topic" style=""><g id="sbsvgG1372" data-name="hand-drawn-topic-shape-group"></g><g id="sbsvgG1373" data-name="topic-shape-group"><path id="sbsvgPath1374" data-name="topic-shape-fill" opacity="0" d="M -54 -15L 54 -15Q 62 -15  62 -7L 62 7Q 62 15  54 15L -54 15Q -62 15  -62 7L -62 -7Q -62 -15  -54 -15"></path><path id="sbsvgPath1375" data-name="topic-shape" fill="none" stroke-width="0" stroke-linecap="none" d="M -54 -15L 54 -15Q 62 -15  62 -7L 62 7Q 62 15  54 15L -54 15Q -62 15  -62 7L -62 -7Q -62 -15  -54 -15"></path><g id="sbsvgG1376" data-name="topic-content" transform="translate(-56 -9)"><g id="sbsvgG1377" data-name="inner-element-group"><g id="sbsvgG1383" data-name="topic-title-text-group" fill="#0d0d0d" text-decoration="none" text-anchor="start" font-size="14" font-family="'Droid Serif','NeverMind','NeverMind','Microsoft YaHei','PingFang SC','Microsoft JhengHei',sans-serif" font-weight="400" font-style="normal"><text id="sbsvgText1382" font-family="'Droid Serif','NeverMind','NeverMind','Microsoft YaHei','PingFang SC','Microsoft JhengHei',sans-serif" fill="#0d0d0d" text-decoration="none" text-anchor="start" font-size="14" font-weight="400" font-style="normal" style="user-select: none; cursor: default;"><tspan id="sbsvgTspan1418" font-family="'Droid Serif','NeverMind','NeverMind','Microsoft YaHei','PingFang SC','Microsoft JhengHei',sans-serif" font-size="14" font-weight="400" font-style="normal" text-decoration="none" dy="14" x="0" style="white-space: pre;">‎消息没有到达队列</tspan></text></g><g id="sbsvgG1384" data="markers-group" class="MARKERS"></g></g></g></g></g></g><g id="sbsvgG1429" data-name="branch" class="branch" transform="translate(565 -28.5)"><g id="sbsvgG1419" data-name="topic" class="topic" style=""><g id="sbsvgG1420" data-name="hand-drawn-topic-shape-group"></g><g id="sbsvgG1421" data-name="topic-shape-group"><path id="sbsvgPath1422" data-name="topic-shape-fill" opacity="0" d="M -47 -15L 47 -15Q 55 -15  55 -7L 55 7Q 55 15  47 15L -47 15Q -55 15  -55 7L -55 -7Q -55 -15  -47 -15"></path><path id="sbsvgPath1423" data-name="topic-shape" fill="none" stroke-width="0" stroke-linecap="none" d="M -47 -15L 47 -15Q 55 -15  55 -7L 55 7Q 55 15  47 15L -47 15Q -55 15  -55 7L -55 -7Q -55 -15  -47 -15"></path><g id="sbsvgG1424" data-name="topic-content" transform="translate(-49 -9)"><g id="sbsvgG1425" data-name="inner-element-group"><g id="sbsvgG1431" data-name="topic-title-text-group" fill="#0d0d0d" text-decoration="none" text-anchor="start" font-size="14" font-family="'Droid Serif','NeverMind','NeverMind','Microsoft YaHei','PingFang SC','Microsoft JhengHei',sans-serif" font-weight="400" font-style="normal"><text id="sbsvgText1430" font-family="'Droid Serif','NeverMind','NeverMind','Microsoft YaHei','PingFang SC','Microsoft JhengHei',sans-serif" fill="#0d0d0d" text-decoration="none" text-anchor="start" font-size="14" font-weight="400" font-style="normal" style="user-select: none; cursor: default;"><tspan id="sbsvgTspan1478" font-family="'Droid Serif','NeverMind','NeverMind','Microsoft YaHei','PingFang SC','Microsoft JhengHei',sans-serif" font-size="14" font-weight="400" font-style="normal" text-decoration="none" dy="14" x="0" style="white-space: pre;">‎进入死信交换机</tspan></text></g><g id="sbsvgG1432" data="markers-group" class="MARKERS"></g></g></g></g></g></g><g id="sbsvgG1489" data-name="branch" class="branch" transform="translate(551 -64.5)"><g id="sbsvgG1479" data-name="topic" class="topic" style=""><g id="sbsvgG1480" data-name="hand-drawn-topic-shape-group"></g><g id="sbsvgG1481" data-name="topic-shape-group"><path id="sbsvgPath1482" data-name="topic-shape-fill" opacity="0" d="M -33 -15L 33 -15Q 41 -15  41 -7L 41 7Q 41 15  33 15L -33 15Q -41 15  -41 7L -41 -7Q -41 -15  -33 -15"></path><path id="sbsvgPath1483" data-name="topic-shape" fill="none" stroke-width="0" stroke-linecap="none" d="M -33 -15L 33 -15Q 41 -15  41 -7L 41 7Q 41 15  33 15L -33 15Q -41 15  -41 7L -41 -7Q -41 -15  -33 -15"></path><g id="sbsvgG1484" data-name="topic-content" transform="translate(-35 -9)"><g id="sbsvgG1485" data-name="inner-element-group"><g id="sbsvgG1491" data-name="topic-title-text-group" fill="#0d0d0d" text-decoration="none" text-anchor="start" font-size="14" font-family="'Droid Serif','NeverMind','NeverMind','Microsoft YaHei','PingFang SC','Microsoft JhengHei',sans-serif" font-weight="400" font-style="normal"><text id="sbsvgText1490" font-family="'Droid Serif','NeverMind','NeverMind','Microsoft YaHei','PingFang SC','Microsoft JhengHei',sans-serif" fill="#0d0d0d" text-decoration="none" text-anchor="start" font-size="14" font-weight="400" font-style="normal" style="user-select: none; cursor: default;"><tspan id="sbsvgTspan1537" font-family="'Droid Serif','NeverMind','NeverMind','Microsoft YaHei','PingFang SC','Microsoft JhengHei',sans-serif" font-size="14" font-weight="400" font-style="normal" text-decoration="none" dy="14" x="0" style="white-space: pre;">‎到达消费者</tspan></text></g><g id="sbsvgG1492" data="markers-group" class="MARKERS"></g></g></g></g></g></g></g><g id="sbsvgG1018" data-name="relationship-container"></g><g id="sbsvgG1022" data-name="cloneG" opacity="0.5"></g></g></g><defs id="sbsvgDefs1005"></defs></svg>